{"title":"Great Expectations 2012 BRRip 720p x264 AAC - PRiSTiNE [P2PDL]","uid":8322177,"size":770156262,"categoryP":"video","categoryS":"hd___movies","magnet":"?xt=urn:btih:4cc3c53a40cceecb57186923c7b64d6af842618c&amp;dn=Great+Expectations+2012+BRRip+720p+x264+AAC+-+PRiSTiNE+%5BP2PDL%5D&amp;tr=udp%3A%2F%2Ftracker.openbittorrent.com%3A80&amp;tr=udp%3A%2F%2Fopen.demonii.com%3A1337&amp;tr=udp%3A%2F%2Ftracker.coppersurfer.tk%3A6969&amp;tr=udp%3A%2F%2Fexodus.desync.com%3A6969","seeders":6,"leechers":0,"uploader":"ValidusVyto","files":-1,"time":1364708424,"description":"_________________________  Visit us at _________________________\n  &lt;a href=&quot;\nhttp://p2pdl.com&quot; rel=&quot;nofollow&quot; target=&quot;_NEW&quot;&gt;\nhttp://p2pdl.com&lt;/a&gt;  ____________________________ &lt;a href=&quot; http://p2pdl.com&quot; rel=&quot;nofollow&quot; target=&quot;_NEW&quot;&gt; http://p2pdl.com&lt;/a&gt;\n\n\nGreat Expectations 2012 BRRip 720p x264 AAC - PRiSTiNE\n\n\nGenre: Drama\nPlot: A humble orphan suddenly becomes a gentleman with the help of an unknown benefactor. \nDirector: Mike Newell\nStars: Ralph Fiennes, Helena Bonham Carter, Robbie Coltrane.\nRated: N/a.\n\n\nInfo: &lt;a href=&quot;\nhttp://www.imdb.com/title/tt1836808/&quot; rel=&quot;nofollow&quot; target=&quot;_NEW&quot;&gt;\nhttp://www.imdb.com/title/tt1836808/&lt;/a&gt;\n\nTrailer:\n\n\nFormat                         : MPEG-4\nFile size                      : 722 MiB\nDuration                       : 2h 8mn\nOverall bit rate mode          : Variable\nOverall bit rate               : 786 Kbps\nVideo Format                   : AVC\nVideo Bit rate                 : 699 Kbps\nWidth                          : 1 280 pixels\nHeight                         : 544 pixels\nDisplay aspect ratio           : 2.35:1\nFrame rate mode                : Constant\nFrame rate                     : 23.976 fps\nStream size                    : 642 MiB (89%)\nWriting library                : x264 core 130 r2273\nAudio Format                   : AAC\nBit rate mode                  : Variable\nAudio Bit rate                 : 83.9 Kbps\nChannel(s)                     : 2 channels\nChannel positions              : Front: L R\nSampling rate                  : 48.0 KHz\nStream size                    : 77.0 MiB (11%)\nLanguage                       : English\nSubtitle                       : Yes(English)\nSource                         : 720p.BluRay.X264-7SinS(Thanks)\n\nScreenshots:\n &lt;a href=&quot;\nhttp://cdn.piczend.com/images/3vqzHWKK/1364700900_1.jpg&quot; rel=&quot;nofollow&quot; target=&quot;_NEW&quot;&gt;\nhttp://cdn.piczend.com/images/3vqzHWKK/1364700900_1.jpg&lt;/a&gt; &lt;a href=&quot;\nhttp://cdn.piczend.com/images/MZiAgFuM/1364700902_2.jpg&quot; rel=&quot;nofollow&quot; target=&quot;_NEW&quot;&gt;\nhttp://cdn.piczend.com/images/MZiAgFuM/1364700902_2.jpg&lt;/a&gt; &lt;a href=&quot;\nhttp://cdn.piczend.com/images/yAhpkWuv/1364700902_3.jpg&quot; rel=&quot;nofollow&quot; target=&quot;_NEW&quot;&gt;\nhttp://cdn.piczend.com/images/yAhpkWuv/1364700902_3.jpg&lt;/a&gt; &lt;a href=&quot;\nhttp://cdn.piczend.com/images/lQsTMi6v/1364700901_4.jpg&quot; rel=&quot;nofollow&quot; target=&quot;_NEW&quot;&gt;\nhttp://cdn.piczend.com/images/lQsTMi6v/1364700901_4.jpg&lt;/a&gt; &lt;a href=&quot;\nhttp://cdn.piczend.com/images/sa5sHge2/1364700903_5.jpg&quot; rel=&quot;nofollow&quot; target=&quot;_NEW&quot;&gt;\nhttp://cdn.piczend.com/images/sa5sHge2/1364700903_5.jpg&lt;/a&gt; &lt;a href=&quot;\nhttp://cdn.piczend.com/images/Dp458kO9/1364700902_6.jpg&quot; rel=&quot;nofollow&quot; target=&quot;_NEW&quot;&gt;\nhttp://cdn.piczend.com/images/Dp458kO9/1364700902_6.jpg&lt;/a&gt;\n\n\n----------------------------------------------------------------------------------------------------\n\n\nEncoded using revolutionary 10bit encoding, which enables us to provide you more crispier \nand sharper images at small sizes, just make sure you follow our instructions without a fault.\nRecommend to you to use latest version of VLC player. Install K-Lite Codec Pack or shark007 codecs\nin case of any kind of problem in playback (For non-VLC Media Player users). Alternatively, install\nCore AVC codecs, the fastest decoder that there is coupled with Community Center Codec Pack and play\non Windows Media Player Classic. Check sample to be sure.\nEnjoy!\n\nEncoder Notes: Encoder Notes: Looking For Early Access To Anything You Can Provide DVDScr, R5, DVDR, BluRay, Direct\nAudio, Music Releases and Seedboxes. We require dedicated servers, so as to do more and fast releases of movies.\nIf You Got anything to offer contact us at &quot;&lt;a class=&quot;__cf_email__&quot; href=&quot;/cdn-cgi/l/email-protection&quot; data-cfemail=&quot;6d1d1f0a2d05181e05430e0200&quot;&gt;[email&amp;#160;protected]&lt;/a&gt;&lt;script cf-hash='f9e31' type=&quot;text/javascript&quot;&gt;\n/* &lt;![CDATA[ */!function(){try{var t=&quot;currentScript&quot;in document?document.currentScript:function(){for(var t=document.getElementsByTagName(&quot;script&quot;),e=t.length;e--;)if(t[e].getAttribute(&quot;cf-hash&quot;))return t[e]}();if(t&amp;&amp;t.previousSibling){var e,r,n,i,c=t.previousSibling,a=c.getAttribute(&quot;data-cfemail&quot;);if(a){for(e=&quot;&quot;,r=parseInt(a.substr(0,2),16),n=2;a.length-n;n+=2)i=parseInt(a.substr(n,2),16)^r,e+=String.fromCharCode(i);e=document.createTextNode(e),c.parentNode.replaceChild(e,c)}}}catch(u){}}();/* ]]&gt; */&lt;/script&gt;&quot;.\n\nFan Page:  &lt;a href=&quot;\nhttp://www.fb.me/p2pdl&quot; rel=&quot;nofollow&quot; target=&quot;_NEW&quot;&gt;\nhttp://www.fb.me/p2pdl&lt;/a&gt;","torrent":{"xt":"urn:btih:4cc3c53a40cceecb57186923c7b64d6af842618c","amp;dn":"Great+Expectations+2012+BRRip+720p+x264+AAC+-+PRiSTiNE+%5BP2PDL%5D","amp;tr":["udp%3A%2F%2Ftracker.openbittorrent.com%3A80","udp%3A%2F%2Fopen.demonii.com%3A1337","udp%3A%2F%2Ftracker.coppersurfer.tk%3A6969","udp%3A%2F%2Fexodus.desync.com%3A6969"],"infoHash":"4cc3c53a40cceecb57186923c7b64d6af842618c","infoHashBuffer":{"type":"Buffer","data":[76,195,197,58,64,204,238,203,87,24,105,35,199,182,77,106,248,66,97,140]},"announce":[],"urlList":[]}}